<svg width="858" height="1109" viewBox="0 0 858 1109" fill="none" xmlns="http://www.w3.org/2000/svg">
<rect y="474" width="922.288" height="945" rx="442.082" fill="#417154"/>
<path d="M331 536.976C331 305.03 519.03 117 750.976 117C982.922 117 1170.95 305.029 1170.95 536.976V557.525C1170.95 789.471 982.922 977.501 750.976 977.501C519.03 977.501 331 789.471 331 557.525V536.976Z" fill="#6DBE7C"/>
<path d="M558 71.0714C558 -102.385 698.614 -243 872.071 -243C1045.53 -243 1186.14 -102.386 1186.14 71.0712V93.6556C1186.14 267.112 1045.53 407.727 872.071 407.727C698.614 407.727 558 267.112 558 93.6558V71.0714Z" fill="#C0EEC8"/>
</svg>
